<svg width="62" height="62" viewBox="0 0 62 62" fill="none" xmlns="http://www.w3.org/2000/svg">
<g clip-path="url(#clip0_12_319)">
<path d="M54.25 7.74997H7.75C5.69457 7.74997 3.72333 8.56649 2.26992 10.0199C0.816515 11.4733 0 13.4445 0 15.5L0 20.6666H62V15.5C62 13.4445 61.1835 11.4733 59.7301 10.0199C58.2767 8.56649 56.3054 7.74997 54.25 7.74997Z" fill="#D5E6F3"/>
<path d="M0 54.2495H62V25.8329H0V54.2495ZM18.0833 40.0412C18.0833 40.8076 17.8561 41.5568 17.4303 42.1941C17.0045 42.8313 16.3993 43.328 15.6912 43.6213C14.9832 43.9145 14.204 43.9913 13.4524 43.8418C12.7007 43.6922 12.0102 43.3232 11.4683 42.7813C10.9264 42.2393 10.5573 41.5489 10.4078 40.7972C10.2583 40.0455 10.335 39.2664 10.6283 38.5583C10.9216 37.8503 11.4183 37.2451 12.0555 36.8193C12.6927 36.3935 13.4419 36.1662 14.2083 36.1662C15.236 36.1662 16.2217 36.5745 16.9484 37.3012C17.6751 38.0279 18.0833 39.0135 18.0833 40.0412Z" fill="url(#paint0_radial_12_319)"/>
</g>
<defs>
<radialGradient id="paint0_radial_12_319" cx="0" cy="0" r="1" gradientUnits="userSpaceOnUse" gradientTransform="translate(1.31177e-06 26) rotate(24.3045) scale(68.0294 148.428)">
<stop stop-color="#FF6891"/>
<stop offset="1" stop-color="#FFA03B"/>
</radialGradient>
<clipPath id="clip0_12_319">
<rect width="62" height="62" fill="white"/>
</clipPath>
</defs>
</svg>
